<svg xmlns="http://www.w3.org/2000/svg" viewBox="0 0 180 180">
  <rect width="180" height="180" rx="40" fill="#060805"/>
  <path d="M10,10 L26,10 M10,10 L10,26" stroke="#d4a820" stroke-width="3" fill="none"/>
  <path d="M170,10 L154,10 M170,10 L170,26" stroke="#d4a820" stroke-width="3" fill="none"/>
  <path d="M10,170 L26,170 M10,170 L10,154" stroke="#d4a820" stroke-width="3" fill="none"/>
  <path d="M170,170 L154,170 M170,170 L170,154" stroke="#d4a820" stroke-width="3" fill="none"/>
  <!-- Tag -->
  <rect x="54" y="22" width="72" height="106" rx="12" fill="#0e1408" stroke="#d4a820" stroke-width="3"/>
  <rect x="84" y="122" width="12" height="8" rx="2" fill="#0e1408" stroke="#d4a820" stroke-width="2.5"/>
  <circle cx="90" cy="140" r="3" fill="#d4a820" opacity="0.7"/>
  <circle cx="90" cy="152" r="3" fill="#d4a820" opacity="0.6"/>
  <!-- Barbell -->
  <rect x="30" y="68" width="120" height="12" rx="3" fill="#8aaa30"/>
  <rect x="22" y="56" width="18" height="36" rx="5" fill="#8aaa30"/>
  <rect x="140" y="56" width="18" height="36" rx="5" fill="#8aaa30"/>
  <rect x="48" y="60" width="10" height="28" rx="3" fill="#d4a820"/>
  <rect x="122" y="60" width="10" height="28" rx="3" fill="#d4a820"/>
  <!-- Stars -->
  <text x="70" y="48" font-family="Arial" font-size="12" fill="#d4a820" text-anchor="middle">★</text>
  <text x="110" y="48" font-family="Arial" font-size="12" fill="#d4a820" text-anchor="middle">★</text>
  <!-- Text -->
  <text x="90" y="106" font-family="Arial,sans-serif" font-weight="bold" font-size="18" fill="#d4a820" text-anchor="middle" letter-spacing="4">GRIND</text>
  <line x1="62" y1="55" x2="118" y2="55" stroke="#d4a820" stroke-width="1" opacity="0.3"/>
</svg>