<svg xmlns="http://www.w3.org/2000/svg" viewBox="0 0 192 192">
  <rect width="192" height="192" fill="#060805"/>
  <path d="M8,8 L20,8 M8,8 L8,20" stroke="#d4a820" stroke-width="3" fill="none"/>
  <path d="M184,8 L172,8 M184,8 L184,20" stroke="#d4a820" stroke-width="3" fill="none"/>
  <path d="M8,184 L20,184 M8,184 L8,172" stroke="#d4a820" stroke-width="3" fill="none"/>
  <path d="M184,184 L172,184 M184,184 L184,172" stroke="#d4a820" stroke-width="3" fill="none"/>
  <rect x="60" y="30" width="72" height="100" rx="10" fill="#0e1408" stroke="#d4a820" stroke-width="3"/>
  <rect x="88" y="124" width="16" height="8" rx="2" fill="#0e1408" stroke="#d4a820" stroke-width="2.5"/>
  <rect x="36" y="70" width="120" height="12" rx="3" fill="#8aaa30"/>
  <rect x="28" y="58" width="18" height="36" rx="5" fill="#8aaa30"/>
  <rect x="146" y="58" width="18" height="36" rx="5" fill="#8aaa30"/>
  <rect x="54" y="62" width="10" height="28" rx="3" fill="#d4a820"/>
  <rect x="128" y="62" width="10" height="28" rx="3" fill="#d4a820"/>
  <text x="96" y="106" font-family="Arial,sans-serif" font-weight="bold" font-size="16" fill="#d4a820" text-anchor="middle" letter-spacing="3">GRIND</text>
  <circle cx="96" cy="148" r="3" fill="#d4a820" opacity="0.7"/>
</svg>